:version 1.10
:name ASF
:units
  mass 1
  length 1
  angle deg
:documentation
  ASF file generated by Kaydara
:root
  axis xyz
  order  tx ty tz rx ry rz
  position 0 0 0
  orientation 0 0 0
:bonedata
  begin
    id 1
    name RightUpLegDummy
    direction -0.718183 -0.695806 0.00816078
    length 4.904
    axis 0 0 0 xyz
  end
  begin
    id 2
    name RightUpLeg
    direction -0.0736652 -0.994202 0.0783343
    length 17.4976
    axis -2.72909 -3.00389 -4.00133 xyz
    dof rx ry rz
  end
  begin
    id 3
    name RightLeg
    direction -0.0389037 -0.994596 -0.0962598
    length 16.5821
    axis 3.95836 -18.5909 -4.46993 xyz
    dof rx ry rz
  end
  begin
    id 4
    name RightFoot
    direction -0.311643 -0.412678 0.855906
    length 3.77069
    axis -1.99483 -18.8351 -3.27644 xyz
    dof rx ry rz
  end
  begin
    id 5
    name RightToes
    direction -0.317852 0.0389852 0.947339
    length 3.85082
    axis -2.00228 -18.1713 -3.25211 xyz
    dof rx ry rz
  end
  begin
    id 6
    name SpineDummy
    direction 8.3039e-015 1 4.44677e-016
    length 4.6813
    axis 0 0 0 xyz
  end
  begin
    id 7
    name Spine
    direction -0.000262373 0.999988 0.00493267
    length 10.1015
    axis -0.00246081 0.00062579 0.0150362 xyz
    dof rx ry rz
  end
  begin
    id 8
    name Spine1
    direction 0 0 0
    length 0
    axis -0.00349562 0.000650293 0.0196666 xyz
    dof rx ry rz
  end
  begin
    id 9
    name HEadDummy
    direction -0.000343232 0.999999 0.00123745
    length 3.43865
    axis -0.00349562 0.000650293 0.0196666 xyz
  end
  begin
    id 10
    name HEad
    direction -0.0461221 0.980933 0.188796
    length 5.12695
    axis -0.00351404 -7.04812 0.0199272 xyz
    dof rx ry rz
  end
  begin
    id 11
    name LeftShoulder1Dummy
    direction 0.998904 -0.0399089 -0.0244534
    length 3.5433
    axis -0.00349562 0.000650293 0.0196666 xyz
  end
  begin
    id 12
    name LeftShoulder1
    direction 0.99951 1.64443e-005 0.0312999
    length 4.05031
    axis -0.00349562 0.000650293 0.0196666 xyz
    dof rx ry rz
  end
  begin
    id 13
    name LeftArm
    direction 0.984791 0.0515299 0.165927
    length 12.9126
    axis -64.823 -10.7743 5.20463 xyz
    dof rx ry rz
  end
  begin
    id 14
    name LeftForeArm
    direction 0.984968 0.0534808 0.16425
    length 10.8596
    axis -30.0462 -7.70601 1.87451 xyz
    dof rx ry rz
  end
  begin
    id 15
    name LeftHand
    direction 0.975871 0.0289682 0.216418
    length 6.62295
    axis -20.1348 -6.98077 1.86072 xyz
    dof rx ry rz
  end
  begin
    id 16
    name RightShoulderDummy
    direction -0.998877 -0.0405946 -0.0244307
    length 3.5433
    axis -0.00349562 0.000650293 0.0196666 xyz
  end
  begin
    id 17
    name RightShoulder
    direction -0.998933 -0.0249743 -0.0388558
    length 4.05031
    axis -0.0205316 -4.02113 1.41395 xyz
    dof rx ry rz
  end
  begin
    id 18
    name RightArm
    direction -0.997559 0.068664 0.0127103
    length 12.9638
    axis -67.3882 1.84188 -6.15987 xyz
    dof rx ry rz
  end
  begin
    id 19
    name RightForeArm
    direction -0.991508 0.0912848 0.0926241
    length 10.8312
    axis -22.1975 3.41087 -4.28711 xyz
    dof rx ry rz
  end
  begin
    id 20
    name RightHand
    direction -0.989262 0.0600788 0.133232
    length 6.57864
    axis -12.2911 2.17515 -4.39675 xyz
    dof rx ry rz
  end
  begin
    id 21
    name LeftUpLegDummy
    direction 0.718183 -0.695806 0.00816078
    length 4.904
    axis 0 0 0 xyz
  end
  begin
    id 22
    name LeftUpLeg
    direction 0.0831398 -0.99469 0.0606531
    length 17.4976
    axis -1.71016 2.29552 4.63832 xyz
    dof rx ry rz
  end
  begin
    id 23
    name LeftLeg
    direction 0.0498442 -0.991778 -0.117862
    length 16.5821
    axis 5.13757 15.5727 5.13348 xyz
    dof rx ry rz
  end
  begin
    id 24
    name LeftFoot
    direction 0.269026 -0.433896 0.85986
    length 3.77069
    axis -0.576502 15.6961 4.10267 xyz
    dof rx ry rz
  end
  begin
    id 25
    name LeftToes
    direction 0.277311 0.0251143 0.960452
    length 3.85048
    axis -0.576502 15.6961 4.10267 xyz
    dof rx ry rz
  end
:hierarchy
  begin
    root RightUpLegDummy SpineDummy LeftUpLegDummy
    RightUpLegDummy RightUpLeg
    RightUpLeg RightLeg
    RightLeg RightFoot
    RightFoot RightToes
    SpineDummy Spine
    Spine Spine1
    Spine1 HEadDummy LeftShoulder1Dummy RightShoulderDummy
    HEadDummy HEad
    LeftShoulder1Dummy LeftShoulder1
    LeftShoulder1 LeftArm
    LeftArm LeftForeArm
    LeftForeArm LeftHand
    RightShoulderDummy RightShoulder
    RightShoulder RightArm
    RightArm RightForeArm
    RightForeArm RightHand
    LeftUpLegDummy LeftUpLeg
    LeftUpLeg LeftLeg
    LeftLeg LeftFoot
    LeftFoot LeftToes
  end

:SAMPLES-PER-SECOND 30
:FULLY-SPECIFIED
:DEGREES
96
root  -1.22623 38.4353 71.7382 177.899 1.67099 -173.161
RightUpLeg  -18.8947 1.1691 11.3332
RightLeg  19.566 -1.95911 -4.20222
RightFoot  -0.839871 0.553463 -5.14552
RightToes  3.97569e-016 -3.18055e-015 -2.98177e-016
Spine  6.12873 -2.9435 1.84672
Spine1  6.28866 -4.7316 12.4149
HEad  -0.0710426 1.51237 -4.61104
LeftShoulder1  -3.88251e-019 9.70628e-020 -3.87848e-018
LeftArm  -17.0406 47.2269 -78.8611
LeftForeArm  -10.2216 -24.3768 1.41835
LeftHand  -0.714404 -5.12412 8.4098
RightShoulder  8.40463 10.937 38.9379
RightArm  14.1118 -52.1254 -6.88246
RightForeArm  14.3724 3.71212 -3.99791
RightHand  -0.414797 0.0196283 -8.67585
LeftUpLeg  -1.15677 1.94478 4.32193
LeftLeg  51.6087 -10.242 5.49591
LeftFoot  -0.69 0.795705 -7.52533
LeftToes  4.86531e-011 4.41684e-011 -2.86034e-011
97
root  -1.02029 38.4516 70.5245 177.261 0.637451 -172.515
RightUpLeg  -16.9116 1.25579 11.9663
RightLeg  21.105 -2.98168 -4.84952
RightFoot  -2.94238 0.488105 -5.37259
RightToes  3.97569e-016 -3.18055e-015 -2.98177e-016
Spine  6.20746 -2.979 3.77151
Spine1  7.14416 -4.40117 11.612
HEad  -0.490626 0.38897 -3.72565
LeftShoulder1  -3.88251e-019 9.70628e-020 -3.87848e-018
LeftArm  -26.0488 47.3476 -78.9246
LeftForeArm  -1.6518 -18.7982 -2.79182
LeftHand  -0.473019 -3.71451 6.55238
RightShoulder  8.46847 10.9678 39.1741
RightArm  12.314 -50.6015 -1.87783
RightForeArm  12.353 6.05524 -3.56602
RightHand  -0.433618 -0.226774 -9.4931
LeftUpLeg  -7.92441 1.53541 5.26471
LeftLeg  61.4707 -9.72104 8.87928
LeftFoot  8.64998 1.08097 -5.5174
LeftToes  4.86531e-011 4.41684e-011 -2.86034e-011
98
root  -0.870645 38.5049 69.2967 177.043 0.0108643 -172.105
RightUpLeg  -15.1287 1.42334 12.4078
RightLeg  22.2532 -3.55189 -5.30465
RightFoot  -5.64667 0.315357 -4.54888
RightToes  3.97569e-016 -3.18055e-015 -2.98177e-016
Spine  5.26723 -2.65236 5.95572
Spine1  8.53312 -3.68185 10.2199
HEad  -0.74765 -0.931508 -3.27668
LeftShoulder1  -3.88251e-019 9.70628e-020 -3.87848e-018
LeftArm  -30.6879 47.4268 -79.0959
LeftForeArm  3.2792 -13.6292 -3.68425
LeftHand  -0.474574 -3.04106 7.05364
RightShoulder  8.62903 11.0434 39.7678
RightArm  10.144 -47.5476 3.46657
RightForeArm  11.7291 7.9627 -3.22747
RightHand  -0.514239 -0.335596 -11.4633
LeftUpLeg  -14.1943 2.13419 5.3407
LeftLeg  67.2967 -8.87564 14.0817
LeftFoot  10.1698 0.472638 -2.06719
LeftToes  4.86531e-011 4.41684e-011 -2.86034e-011
99
root  -0.752819 38.5882 68.0378 176.859 0.412537 -172.295
RightUpLeg  -13.0332 1.1771 12.4477
RightLeg  23.0084 -2.90221 -5.37241
RightFoot  -8.36558 0.181842 -3.80258
RightToes  3.97569e-016 -3.18055e-015 -2.98177e-016
Spine  4.48696 -1.93096 7.61853
Spine1  9.2435 -2.49689 8.49652
HEad  -0.207999 -1.85841 -3.24292
LeftShoulder1  -3.88251e-019 9.70628e-020 -3.87848e-018
LeftArm  -32.4985 48.9215 -79.3034
LeftForeArm  4.45875 -10.5288 -3.18843
LeftHand  -0.643999 -2.74534 9.83561
RightShoulder  8.77023 11.1157 40.2708
RightArm  8.16561 -43.4559 8.54198
RightForeArm  12.5082 9.35252 -2.97397
RightHand  -0.701723 0.151564 -14.3225
LeftUpLeg  -18.9691 3.78795 4.39431
LeftLeg  68.9338 -7.84985 18.8928
LeftFoot  6.21915 -0.108069 0.718814
LeftToes  4.86531e-011 4.41684e-011 -2.86034e-011
100
root  -0.654443 38.673 66.7663 176.277 1.56323 -172.909
RightUpLeg  -10.2875 0.804919 12.0806
RightLeg  23.2783 -1.57757 -5.15144
RightFoot  -10.1792 0.131259 -3.88434
RightToes  3.97569e-016 -3.18055e-015 -2.98177e-016
Spine  4.43204 -1.11214 8.86833
Spine1  9.14193 -1.12366 6.52015
HEad  0.889262 -2.14852 -3.3725
LeftShoulder1  -3.88251e-019 9.70628e-020 -3.87848e-018
LeftArm  -33.8853 51.9961 -79.1112
LeftForeArm  3.3869 -9.66005 -2.76383
LeftHand  -0.795491 -2.68277 12.2105
RightShoulder  8.77532 11.1191 40.2867
RightArm  6.85054 -39.1792 13.2935
RightForeArm  13.2414 10.8234 -2.7846
RightHand  -0.928143 1.01385 -16.5152
LeftUpLeg  -22.1787 5.57718 3.02968
LeftLeg  67.1993 -6.63443 20.7418
LeftFoot  2.285 -0.201565 1.51898
LeftToes  4.86531e-011 4.41684e-011 -2.86034e-011
